<svg xmlns="http://www.w3.org/2000/svg" width="337" height="414" viewBox="0 0 337 414">
  <g id="Group_10" data-name="Group 10" transform="translate(-82)">
    <path id="Rectangle_2" data-name="Rectangle 2" d="M60,0h40a0,0,0,0,1,0,0V354a60,60,0,0,1-60,60H0a0,0,0,0,1,0,0V60A60,60,0,0,1,60,0Z" transform="translate(82)" fill="#013a63"/>
    <path id="Rectangle_3" data-name="Rectangle 3" d="M60,0h41a0,0,0,0,1,0,0V284a60,60,0,0,1-60,60H0a0,0,0,0,1,0,0V60A60,60,0,0,1,60,0Z" transform="translate(200 70)" fill="#2a6f97"/>
    <path id="Rectangle_4" data-name="Rectangle 4" d="M60,0h40a0,0,0,0,1,0,0V354a60,60,0,0,1-60,60H0a0,0,0,0,1,0,0V60A60,60,0,0,1,60,0Z" transform="translate(319)" fill="#468faf"/>
  </g>
</svg>
