<svg xmlns="http://www.w3.org/2000/svg" width="339" height="499" viewBox="0 0 339 499">
  <g id="Group_1" data-name="Group 1" transform="translate(-81)">
    <path id="Rectangle_2" data-name="Rectangle 2" d="M60,0h40a0,0,0,0,1,0,0V354a60,60,0,0,1-60,60H0a0,0,0,0,1,0,0V60A60,60,0,0,1,60,0Z" transform="translate(82)" fill="#013a63"/>
    <path id="Rectangle_3" data-name="Rectangle 3" d="M60,0h41a0,0,0,0,1,0,0V284a60,60,0,0,1-60,60H0a0,0,0,0,1,0,0V60A60,60,0,0,1,60,0Z" transform="translate(200 70)" fill="#2a6f97"/>
    <path id="Rectangle_4" data-name="Rectangle 4" d="M60,0h40a0,0,0,0,1,0,0V354a60,60,0,0,1-60,60H0a0,0,0,0,1,0,0V60A60,60,0,0,1,60,0Z" transform="translate(319)" fill="#468faf"/>
    <text id="whats_poppin_" data-name="whats poppin?" transform="translate(81 478)" fill="#012a4a" font-size="71" font-family="BebasNeue-Regular, Bebas Neue"><tspan x="0" y="0">whats poppin?</tspan></text>
  </g>
</svg>
